<!-- Course Icons SVG -->
<svg xmlns="http://www.w3.org/2000/svg" width="600" height="100" viewBox="0 0 600 100">
  <defs>
    <linearGradient id="courseGradient1" x1="0%" y1="0%" x2="100%" y2="100%">
      <stop offset="0%" stop-color="#667eea" />
      <stop offset="100%" stop-color="#764ba2" />
    </linearGradient>
    <linearGradient id="courseGradient2" x1="0%" y1="0%" x2="100%" y2="100%">
      <stop offset="0%" stop-color="#f093fb" />
      <stop offset="100%" stop-color="#f5576c" />
    </linearGradient>
    <linearGradient id="courseGradient3" x1="0%" y1="0%" x2="100%" y2="100%">
      <stop offset="0%" stop-color="#4facfe" />
      <stop offset="100%" stop-color="#00f2fe" />
    </linearGradient>
    <linearGradient id="courseGradient4" x1="0%" y1="0%" x2="100%" y2="100%">
      <stop offset="0%" stop-color="#fa709a" />
      <stop offset="100%" stop-color="#fee140" />
    </linearGradient>
    <linearGradient id="courseGradient5" x1="0%" y1="0%" x2="100%" y2="100%">
      <stop offset="0%" stop-color="#a8edea" />
      <stop offset="100%" stop-color="#fed6e3" />
    </linearGradient>
    <linearGradient id="courseGradient6" x1="0%" y1="0%" x2="100%" y2="100%">
      <stop offset="0%" stop-color="#d299c2" />
      <stop offset="100%" stop-color="#fef9d7" />
    </linearGradient>
  </defs>
  
  <!-- Data Analysis Icon -->
  <circle cx="50" cy="50" r="40" fill="url(#courseGradient1)" />
  <path d="M30 50 L40 40 L50 60 L70 30" stroke="#fff" stroke-width="4" fill="none" />
  <circle cx="30" cy="50" r="3" fill="#fff" />
  <circle cx="40" cy="40" r="3" fill="#fff" />
  <circle cx="50" cy="60" r="3" fill="#fff" />
  <circle cx="70" cy="30" r="3" fill="#fff" />
  
  <!-- UI/UX Design Icon -->
  <circle cx="150" cy="50" r="40" fill="url(#courseGradient2)" />
  <rect x="130" y="30" width="40" height="40" rx="5" stroke="#fff" stroke-width="3" fill="none" />
  <circle cx="150" cy="50" r="10" fill="#fff" opacity="0.7" />
  <path d="M140 30 L140 15 M160 30 L160 15 M140 15 L160 15" stroke="#fff" stroke-width="2" />
  
  <!-- Web Development Icon -->
  <circle cx="250" cy="50" r="40" fill="url(#courseGradient3)" />
  <text x="235" y="60" font-family="monospace" font-size="25" fill="#fff">&lt;/&gt;</text>
  
  <!-- Mobile Development Icon -->
  <circle cx="350" cy="50" r="40" fill="url(#courseGradient4)" />
  <rect x="330" y="25" width="40" height="60" rx="5" stroke="#fff" stroke-width="3" fill="none" />
  <circle cx="350" cy="75" r="5" stroke="#fff" stroke-width="2" fill="none" />
  <line x1="340" y1="35" x2="360" y2="35" stroke="#fff" stroke-width="2" />
  
  <!-- Digital Marketing Icon -->
  <circle cx="450" cy="50" r="40" fill="url(#courseGradient5)" />
  <path d="M435 65 L450 30 L465 65 Z" stroke="#fff" stroke-width="3" fill="none" />
  <circle cx="450" cy="45" r="8" fill="#fff" opacity="0.6" />
  
  <!-- Business Analytics Icon -->
  <circle cx="550" cy="50" r="40" fill="url(#courseGradient6)" />
  <rect x="530" y="35" width="10" height="30" stroke="#fff" stroke-width="2" fill="#fff" opacity="0.7" />
  <rect x="545" y="25" width="10" height="40" stroke="#fff" stroke-width="2" fill="#fff" opacity="0.7" />
  <rect x="560" y="40" width="10" height="25" stroke="#fff" stroke-width="2" fill="#fff" opacity="0.7" />
</svg>
