<!-- Students Illustration SVG -->
<svg xmlns="http://www.w3.org/2000/svg" width="400" height="400" viewBox="0 0 400 400">
  <defs>
    <linearGradient id="studentGradient1" x1="0%" y1="0%" x2="100%" y2="100%">
      <stop offset="0%" stop-color="#ff9500" />
      <stop offset="100%" stop-color="#ffb347" />
    </linearGradient>
    <linearGradient id="studentGradient2" x1="0%" y1="0%" x2="100%" y2="100%">
      <stop offset="0%" stop-color="#667eea" />
      <stop offset="100%" stop-color="#764ba2" />
    </linearGradient>
    <linearGradient id="studentGradient3" x1="0%" y1="0%" x2="100%" y2="100%">
      <stop offset="0%" stop-color="#4facfe" />
      <stop offset="100%" stop-color="#00f2fe" />
    </linearGradient>
  </defs>
  
  <!-- Background Circle -->
  <circle cx="200" cy="200" r="180" fill="#fff" opacity="0.1" />
  
  <!-- Student 1 -->
  <g transform="translate(80, 120)">
    <circle cx="50" cy="50" r="50" fill="url(#studentGradient1)" />
    <circle cx="35" cy="40" r="8" fill="#fff" opacity="0.7" />
    <circle cx="65" cy="40" r="8" fill="#fff" opacity="0.7" />
    <path d="M35 70 Q50 85 65 70" stroke="#fff" stroke-width="3" fill="none" />
    <path d="M20 20 L30 30 M70 20 L80 30" stroke="#fff" stroke-width="2" />
  </g>
  
  <!-- Student 2 -->
  <g transform="translate(220, 120)">
    <circle cx="50" cy="50" r="50" fill="url(#studentGradient2)" />
    <circle cx="35" cy="40" r="8" fill="#fff" opacity="0.7" />
    <circle cx="65" cy="40" r="8" fill="#fff" opacity="0.7" />
    <path d="M35 70 Q50 85 65 70" stroke="#fff" stroke-width="3" fill="none" />
    <rect x="25" y="10" width="50" height="15" rx="5" fill="#fff" opacity="0.5" />
  </g>
  
  <!-- Student 3 -->
  <g transform="translate(150, 240)">
    <circle cx="50" cy="50" r="50" fill="url(#studentGradient3)" />
    <circle cx="35" cy="40" r="8" fill="#fff" opacity="0.7" />
    <circle cx="65" cy="40" r="8" fill="#fff" opacity="0.7" />
    <path d="M35 70 Q50 60 65 70" stroke="#fff" stroke-width="3" fill="none" />
    <path d="M50 10 L60 25 L40 25 Z" fill="#fff" opacity="0.7" />
  </g>
  
  <!-- Connecting Lines -->
  <line x1="130" y1="170" x2="200" y2="240" stroke="#fff" stroke-width="2" opacity="0.5" stroke-dasharray="5,5" />
  <line x1="270" y1="170" x2="200" y2="240" stroke="#fff" stroke-width="2" opacity="0.5" stroke-dasharray="5,5" />
  
  <!-- Decorative Elements -->
  <circle cx="100" cy="100" r="10" fill="#fff" opacity="0.3" />
  <circle cx="300" cy="100" r="10" fill="#fff" opacity="0.3" />
  <circle cx="200" cy="350" r="10" fill="#fff" opacity="0.3" />
</svg>
